<?xml version="1.0" encoding="UTF-8"?>
<svg id="Calque_1" xmlns="http://www.w3.org/2000/svg" xmlns:xlink="http://www.w3.org/1999/xlink" version="1.1" viewBox="0 0 775.09 312.65">
  <!-- Generator: Adobe Illustrator 29.5.1, SVG Export Plug-In . SVG Version: 2.1.0 Build 141)  -->
  <defs>
    <style>
      .st0 {
        fill: url(#Dégradé_sans_nom_4);
      }

      .st1 {
        fill: url(#Dégradé_sans_nom_5);
      }

      .st2 {
        fill: url(#Dégradé_sans_nom_2);
      }

      .st3 {
        fill: url(#Dégradé_sans_nom_3);
      }

      .st4 {
        fill: #fff;
      }

      .st5 {
        fill: url(#Dégradé_sans_nom_31);
      }

      .st6 {
        fill: url(#Dégradé_sans_nom_32);
      }

      .st7 {
        fill: url(#Dégradé_sans_nom_51);
      }

      .st8 {
        fill: url(#Dégradé_sans_nom_52);
      }
    </style>
    <linearGradient id="Dégradé_sans_nom_5" data-name="Dégradé sans nom 5" x1="94.12" y1="145.57" x2="163.96" y2="105.25" gradientUnits="userSpaceOnUse">
      <stop offset="0" stop-color="#acd1ff"/>
      <stop offset=".6" stop-color="#000091"/>
    </linearGradient>
    <linearGradient id="Dégradé_sans_nom_51" data-name="Dégradé sans nom 5" x1="111.15" y1="196.59" x2="111.15" y2="116.09" xlink:href="#Dégradé_sans_nom_5"/>
    <linearGradient id="Dégradé_sans_nom_52" data-name="Dégradé sans nom 5" x1="163.96" y1="207.41" x2="94.14" y2="167.1" xlink:href="#Dégradé_sans_nom_5"/>
    <linearGradient id="Dégradé_sans_nom_3" data-name="Dégradé sans nom 3" x1="-4457.27" y1="105.25" x2="-4527.11" y2="145.57" gradientTransform="translate(-4327.66) rotate(-180) scale(1 -1)" gradientUnits="userSpaceOnUse">
      <stop offset="0" stop-color="#fd9938"/>
      <stop offset=".6" stop-color="#e1000f"/>
      <stop offset=".7" stop-color="#db0211"/>
      <stop offset=".84" stop-color="#ca0817"/>
      <stop offset=".99" stop-color="#af1220"/>
      <stop offset="1" stop-color="#ad1422"/>
    </linearGradient>
    <linearGradient id="Dégradé_sans_nom_31" data-name="Dégradé sans nom 3" x1="-4510.08" y1="116.09" x2="-4510.08" y2="196.59" xlink:href="#Dégradé_sans_nom_3"/>
    <linearGradient id="Dégradé_sans_nom_4" data-name="Dégradé sans nom 4" x1="-4527.09" y1="167.1" x2="-4457.27" y2="207.41" gradientTransform="translate(-4327.66) rotate(-180) scale(1 -1)" gradientUnits="userSpaceOnUse">
      <stop offset="0" stop-color="#fd9938"/>
      <stop offset=".6" stop-color="#e1000f"/>
      <stop offset=".7" stop-color="#db0211"/>
      <stop offset=".84" stop-color="#ca0817"/>
      <stop offset=".99" stop-color="#af1220"/>
      <stop offset="1" stop-color="#ad1422"/>
    </linearGradient>
    <linearGradient id="Dégradé_sans_nom_32" data-name="Dégradé sans nom 3" x1="113.89" y1="137.32" x2="146.71" y2="194.16" gradientTransform="matrix(1,0,0,1,0,0)" xlink:href="#Dégradé_sans_nom_3"/>
    <linearGradient id="Dégradé_sans_nom_2" data-name="Dégradé sans nom 2" x1="179.68" y1="137.33" x2="146.87" y2="194.16" gradientUnits="userSpaceOnUse">
      <stop offset="0" stop-color="#acd1ff"/>
      <stop offset=".03" stop-color="#a2c5f9"/>
      <stop offset=".24" stop-color="#6980d4"/>
      <stop offset=".43" stop-color="#3c49b7"/>
      <stop offset=".59" stop-color="#1b21a2"/>
      <stop offset=".72" stop-color="#070895"/>
      <stop offset=".8" stop-color="#000091"/>
    </linearGradient>
  </defs>
  <g>
    <g>
      <g>
        <path class="st1" d="M146.79,156.33l-69.69-40.24c1-1.78,2.49-3.28,4.32-4.34l60.49-34.94c1.52-.87,3.2-1.31,4.89-1.31v80.83Z"/>
        <path class="st7" d="M146.79,156.33l-69.68,40.26c-1.04-1.76-1.6-3.8-1.6-5.92v-68.69c0-2.12.57-4.13,1.59-5.89l69.69,40.24Z"/>
        <path class="st8" d="M146.79,237.14c-1.87,0-3.53-.6-4.89-1.31l-60.49-34.94c-1.83-1.05-3.28-2.54-4.3-4.3l69.68-40.26v80.81Z"/>
      </g>
      <g>
        <path class="st3" d="M146.79,156.33l69.69-40.24c-1-1.78-2.49-3.28-4.32-4.34l-60.49-34.94c-1.52-.87-3.2-1.31-4.89-1.31v80.83Z"/>
        <path class="st5" d="M146.79,156.33l69.68,40.26c1.04-1.76,1.6-3.8,1.6-5.92v-68.69c0-2.12-.57-4.13-1.59-5.89l-69.69,40.24Z"/>
        <path class="st0" d="M146.79,237.14c1.87,0,3.53-.6,4.89-1.31l60.49-34.94c1.83-1.05,3.28-2.54,4.3-4.3l-69.68-40.26v80.81Z"/>
      </g>
    </g>
    <g>
      <path class="st6" d="M146.79,156.31v37.8c-.89,0-1.78-.23-2.57-.68l-28.88-16.68c-1.23-.7-1.97-2.01-1.97-3.4v-34.06c0-.7.19-1.38.52-1.96l32.91,18.98Z"/>
      <path class="st2" d="M180.21,139.29v34.06c0,1.39-.74,2.69-1.94,3.38,0,.02-.02.02-.02.02l-28.88,16.68c-.79.45-1.7.68-2.57.68v-37.8l32.9-18.98c.34.58.52,1.26.52,1.96Z"/>
      <path class="st4" d="M179.69,137.33l-32.9,18.98-32.91-18.98c.36-.6.84-1.1,1.46-1.44l29.42-16.99c1.26-.73,2.82-.73,4.06,0l29.43,16.99s.02,0,.02.02c.6.34,1.08.84,1.42,1.42Z"/>
    </g>
  </g>
  <g>
    <path d="M275.35,118.02h6.52v19.55c0,8.45-4.96,13.49-13.04,13.49s-12.99-5.05-12.99-13.49v-19.55h6.52v20.1c0,4.31,2.43,6.84,6.52,6.84s6.47-2.52,6.47-6.84v-20.1Z"/>
    <path d="M288.39,127.02h5.83v1.84c1.61-1.56,3.76-2.75,6.84-2.75,5,0,9,3.44,9,10.28v13.77h-5.88v-13.54c0-3.08-1.74-5-4.59-5s-4.5,1.97-5.37,3.44v15.1h-5.83v-23.13Z"/>
    <path d="M329.98,143.31c1.42,1.79,3.12,3.08,5.32,3.08,1.88,0,2.85-1.1,2.85-2.48,0-4.04-11.06-2.52-11.06-10.65,0-4.08,3.44-7.16,8.26-7.16,3.53,0,6.75,1.7,8.4,3.95l-3.86,3.4c-1.19-1.47-2.71-2.66-4.5-2.66s-2.71,1.01-2.71,2.2c0,3.95,11.06,2.57,11.06,10.56-.09,4.87-3.99,7.53-8.35,7.53-4.13,0-7.07-1.65-9.27-4.27l3.86-3.49Z"/>
    <path d="M359.77,151.07c-8.22,0-12.85-5.74-12.85-12.48s4.31-12.48,11.89-12.48c6.43,0,10.65,4.36,10.65,10.42,0,1.29-.18,2.48-.37,3.26h-16.2c.55,4.31,3.21,6.06,6.84,6.06,2.52,0,4.73-1.1,5.97-2.75l4.18,3.3c-2.16,2.89-5.74,4.68-10.1,4.68ZM353.06,135.55h10.65c-.09-2.34-1.79-4.68-5.05-4.68-2.98,0-4.96,1.65-5.6,4.68Z"/>
    <path d="M374.68,127.02h5.83v2.29c1.51-1.56,3.49-2.75,6.1-2.75.78,0,1.47.14,2.02.32v5.74c-.73-.18-1.51-.32-2.57-.32-2.85,0-4.68,1.56-5.55,3.03v14.83h-5.83v-23.13Z"/>
    <path d="M396.95,127.02l6.01,16.52,5.97-16.52h6.29l-8.45,23.13h-7.67l-8.4-23.13h6.24Z"/>
    <path d="M417.55,119.17c0-2.07,1.74-3.81,3.81-3.81s3.76,1.74,3.76,3.81-1.7,3.81-3.76,3.81-3.81-1.74-3.81-3.81ZM418.43,127.02h5.83v23.13h-5.83v-23.13Z"/>
    <path d="M447.11,142.9l4.54,3.49c-2.16,2.85-5.55,4.68-9.78,4.68-7.99,0-12.76-5.74-12.76-12.48s4.77-12.48,12.76-12.48c4.22,0,7.62,1.84,9.78,4.68l-4.54,3.49c-1.1-1.61-2.94-2.66-5.32-2.66-3.81,0-6.61,2.94-6.61,6.98s2.8,6.98,6.7,6.98c2.29,0,4.13-1.06,5.23-2.66Z"/>
    <path d="M465.84,151.07c-8.22,0-12.85-5.74-12.85-12.48s4.31-12.48,11.89-12.48c6.43,0,10.65,4.36,10.65,10.42,0,1.29-.18,2.48-.37,3.26h-16.2c.55,4.31,3.21,6.06,6.84,6.06,2.52,0,4.73-1.1,5.97-2.75l4.18,3.3c-2.16,2.89-5.74,4.68-10.1,4.68ZM459.14,135.55h10.65c-.09-2.34-1.79-4.68-5.05-4.68-2.98,0-4.96,1.65-5.6,4.68Z"/>
    <path d="M492.69,127.02h5.83v1.88c1.79-1.79,4.04-2.8,7.21-2.8,7.34,0,11.75,5.74,11.75,12.48s-4.41,12.48-11.75,12.48c-3.17,0-5.42-1.01-7.21-2.8v13.17h-5.83v-34.42ZM498.52,134.96v7.25c1.56,2.2,3.72,3.35,6.38,3.35,3.95,0,6.52-2.94,6.52-6.98s-2.57-6.98-6.52-6.98c-2.71,0-4.91,1.19-6.38,3.35Z"/>
    <path d="M522.35,127.02h5.83v2.29c1.51-1.56,3.49-2.75,6.1-2.75.78,0,1.47.14,2.02.32v5.74c-.73-.18-1.51-.32-2.57-.32-2.85,0-4.68,1.56-5.55,3.03v14.83h-5.83v-23.13Z"/>
    <path d="M563.24,138.58c0,6.93-5.14,12.48-12.67,12.48s-12.67-5.55-12.67-12.48,5.14-12.48,12.67-12.48,12.67,5.55,12.67,12.48ZM557.18,138.58c0-4.04-2.8-6.98-6.52-6.98s-6.7,2.94-6.7,6.98,2.85,6.98,6.7,6.98,6.52-2.98,6.52-6.98Z"/>
    <path d="M568.11,127.02h5.83v1.88c1.79-1.79,4.04-2.8,7.21-2.8,7.34,0,11.75,5.74,11.75,12.48s-4.41,12.48-11.75,12.48c-3.17,0-5.42-1.01-7.21-2.8v13.17h-5.83v-34.42ZM573.94,134.96v7.25c1.56,2.2,3.72,3.35,6.38,3.35,3.95,0,6.52-2.94,6.52-6.98s-2.57-6.98-6.52-6.98c-2.71,0-4.91,1.19-6.38,3.35Z"/>
    <path d="M621.67,138.58c0,6.93-5.14,12.48-12.67,12.48s-12.67-5.55-12.67-12.48,5.14-12.48,12.67-12.48,12.67,5.55,12.67,12.48ZM615.61,138.58c0-4.04-2.8-6.98-6.52-6.98s-6.7,2.94-6.7,6.98,2.85,6.98,6.7,6.98,6.52-2.98,6.52-6.98Z"/>
    <path d="M627.59,143.31c1.42,1.79,3.12,3.08,5.32,3.08,1.88,0,2.85-1.1,2.85-2.48,0-4.04-11.06-2.52-11.06-10.65,0-4.08,3.44-7.16,8.26-7.16,3.53,0,6.75,1.7,8.4,3.95l-3.86,3.4c-1.19-1.47-2.71-2.66-4.5-2.66s-2.71,1.01-2.71,2.2c0,3.95,11.06,2.57,11.06,10.56-.09,4.87-3.99,7.53-8.35,7.53-4.13,0-7.07-1.65-9.27-4.27l3.86-3.49Z"/>
    <path d="M657.38,151.07c-8.22,0-12.85-5.74-12.85-12.48s4.31-12.48,11.89-12.48c6.43,0,10.65,4.36,10.65,10.42,0,1.29-.18,2.48-.37,3.26h-16.2c.55,4.31,3.21,6.06,6.84,6.06,2.52,0,4.73-1.1,5.97-2.75l4.18,3.3c-2.16,2.89-5.74,4.68-10.1,4.68ZM650.68,135.55h10.65c-.09-2.34-1.79-4.68-5.05-4.68-2.98,0-4.96,1.65-5.6,4.68ZM654.03,123.34l4.77-7.62h6.33l-5.51,7.62h-5.6Z"/>
    <path d="M255.53,170.97h5.83v1.88c1.79-1.79,4.04-2.8,7.21-2.8,7.34,0,11.75,5.74,11.75,12.48s-4.41,12.48-11.75,12.48c-3.17,0-5.42-1.01-7.21-2.8v13.17h-5.83v-34.42ZM261.36,178.91v7.25c1.56,2.2,3.72,3.35,6.38,3.35,3.95,0,6.52-2.94,6.52-6.98s-2.57-6.98-6.52-6.98c-2.71,0-4.91,1.19-6.38,3.35Z"/>
    <path d="M283.34,187.86c0-3.49,2.71-6.1,7.67-6.93l7.07-1.19v-.6c0-2.43-1.84-3.99-4.5-3.99-2.25,0-3.99,1.06-5.23,2.75l-4.27-3.26c2.07-2.85,5.46-4.59,9.68-4.59,6.7,0,10.14,3.99,10.14,9.09v14.96h-5.83v-2.25c-1.47,1.79-4.22,2.94-6.93,2.94-4.64,0-7.8-2.66-7.8-6.93ZM292.34,190.16c2.66,0,4.59-1.24,5.74-3.08v-3.26l-5.51.92c-2.43.41-3.44,1.42-3.44,2.85,0,1.56,1.24,2.57,3.21,2.57Z"/>
    <path d="M310.1,170.97h5.83v2.29c1.51-1.56,3.49-2.75,6.1-2.75.78,0,1.47.14,2.02.32v5.74c-.73-.18-1.51-.32-2.57-.32-2.85,0-4.68,1.56-5.55,3.03v14.83h-5.83v-23.13Z"/>
    <path d="M340.21,170.97h5.83v1.84c1.61-1.56,3.76-2.75,6.84-2.75,5,0,9,3.44,9,10.28v13.77h-5.88v-13.54c0-3.08-1.74-5-4.59-5s-4.5,1.97-5.37,3.44v15.1h-5.83v-23.13Z"/>
    <path d="M383.27,170.97h5.88v12.85c0,6.93-4.04,11.2-10.83,11.2s-10.79-4.27-10.79-11.2v-12.85h5.88v13.13c0,3.35,1.74,5.42,4.96,5.42s4.91-2.07,4.91-5.42v-13.13Z"/>
    <path d="M395.16,170.97h5.83v1.74c1.56-1.51,3.53-2.66,6.38-2.66s5.51,1.29,7.02,3.76c1.65-2.02,3.86-3.76,7.76-3.76,4.77,0,8.54,3.3,8.54,9.82v14.23h-5.88v-14c0-2.8-1.51-4.54-4.13-4.54s-3.9,1.74-4.82,3.3c.05.32.05.64.05,1.01v14.23h-5.88v-14c0-2.8-1.51-4.54-4.13-4.54s-4.04,1.97-4.91,3.44v15.1h-5.83v-23.13Z"/>
    <path d="M448.08,195.03c-8.22,0-12.85-5.74-12.85-12.48s4.31-12.48,11.89-12.48c6.43,0,10.65,4.36,10.65,10.42,0,1.29-.18,2.48-.37,3.26h-16.2c.55,4.31,3.21,6.06,6.84,6.06,2.52,0,4.73-1.1,5.97-2.75l4.18,3.3c-2.16,2.89-5.74,4.68-10.1,4.68ZM441.38,179.51h10.65c-.09-2.34-1.79-4.68-5.05-4.68-2.98,0-4.96,1.65-5.6,4.68Z"/>
    <path d="M463,170.97h5.83v2.29c1.51-1.56,3.49-2.75,6.1-2.75.78,0,1.47.14,2.02.32v5.74c-.73-.18-1.51-.32-2.57-.32-2.85,0-4.68,1.56-5.55,3.03v14.83h-5.83v-23.13Z"/>
    <path d="M480.3,163.13c0-2.07,1.74-3.81,3.81-3.81s3.76,1.74,3.76,3.81-1.7,3.81-3.76,3.81-3.81-1.74-3.81-3.81ZM481.17,170.97h5.83v23.13h-5.83v-23.13Z"/>
    <path d="M503.62,170.06c3.12,0,5.37,1.01,7.16,2.8v-1.88h5.88v34.42h-5.88v-13.17c-1.79,1.79-4.04,2.8-7.16,2.8-7.34,0-11.75-5.74-11.75-12.48s4.41-12.48,11.75-12.48ZM504.4,189.52c2.71,0,4.96-1.19,6.38-3.3v-7.34c-1.56-2.16-3.76-3.3-6.38-3.3-3.95,0-6.47,2.94-6.47,6.98s2.52,6.98,6.47,6.98Z"/>
    <path d="M538.41,170.97h5.88v12.85c0,6.93-4.04,11.2-10.83,11.2s-10.79-4.27-10.79-11.2v-12.85h5.88v13.13c0,3.35,1.74,5.42,4.96,5.42s4.91-2.07,4.91-5.42v-13.13Z"/>
    <path d="M561.5,195.03c-8.22,0-12.85-5.74-12.85-12.48s4.31-12.48,11.89-12.48c6.43,0,10.65,4.36,10.65,10.42,0,1.29-.18,2.48-.37,3.26h-16.2c.55,4.31,3.21,6.06,6.84,6.06,2.52,0,4.73-1.1,5.97-2.75l4.18,3.3c-2.16,2.89-5.74,4.68-10.1,4.68ZM554.8,179.51h10.65c-.09-2.34-1.79-4.68-5.05-4.68-2.98,0-4.96,1.65-5.6,4.68Z"/>
    <path d="M575.04,190.66c0-2.16,1.79-3.99,4.04-3.99s4.04,1.84,4.04,3.99-1.88,3.99-4.04,3.99-4.04-1.79-4.04-3.99Z"/>
    <path d="M588.95,192.5c-.92-.92-1.42-2.16-1.42-3.35,0-1.84.78-3.3,2.52-4.59-2.02-1.51-3.12-3.81-3.12-6.38,0-4.5,3.49-8.12,9.27-8.12,1.79,0,3.35.32,4.68.92h8.45v4.96h-4.08c.23.73.32,1.47.32,2.25,0,4.54-3.4,8.22-9.36,8.22-.78,0-1.51-.05-2.2-.18-.5.46-.78.96-.78,1.47,0,.92.5,1.38,1.56,1.38h5.83c5.83,0,9,3.12,9,7.44,0,5.14-4.91,9.09-12.12,9.09s-11.75-2.57-11.75-7.44c0-2.29,1.15-4.13,3.21-5.65ZM597.44,200.9c4.22,0,6.38-1.56,6.38-3.86,0-1.74-1.06-2.98-3.86-2.98h-7.16c-.87.83-1.56,1.84-1.56,3.26,0,2.2,2.11,3.58,6.2,3.58ZM600.29,178.18c0-2.29-1.56-3.76-3.99-3.76s-4.04,1.51-4.04,3.76,1.51,3.81,4.04,3.81,3.99-1.51,3.99-3.81Z"/>
    <path d="M635.77,182.54c0,6.93-5.14,12.48-12.67,12.48s-12.67-5.55-12.67-12.48,5.14-12.48,12.67-12.48,12.67,5.55,12.67,12.48ZM629.71,182.54c0-4.04-2.8-6.98-6.52-6.98s-6.7,2.94-6.7,6.98,2.85,6.98,6.7,6.98,6.52-2.98,6.52-6.98Z"/>
    <path d="M655.87,170.97h5.88v12.85c0,6.93-4.04,11.2-10.83,11.2s-10.79-4.27-10.79-11.2v-12.85h5.88v13.13c0,3.35,1.74,5.42,4.96,5.42s4.91-2.07,4.91-5.42v-13.13Z"/>
    <path d="M671.07,170.97l6.01,16.52,5.97-16.52h6.29l-8.45,23.13h-7.67l-8.4-23.13h6.24Z"/>
  </g>
</svg>