<svg viewBox="0 0 709 365" fill="none" xmlns="http://www.w3.org/2000/svg">
<path d="M268.06 129.56C269.12 127.81 270.36 126.47 271.77 125.54C273.18 124.61 274.7 124.14 276.33 124.14C278.57 124.14 280.32 124.83 281.57 126.22C282.82 127.61 283.45 129.52 283.45 131.95V153.78H294.45V131.44C294.45 127.91 293.83 124.82 292.6 122.18C291.36 119.54 289.61 117.5 287.33 116.05C285.05 114.61 282.35 113.88 279.24 113.88C276.13 113.88 273.13 114.69 270.6 116.3C269.73 116.86 268.86 117.54 268.01 118.33V114.45H257.07V153.78H268.07V129.56H268.06Z" fill="black"/>
<path d="M330.22 152.01C333.01 150.45 335.17 148.24 336.69 145.37C338.21 142.5 338.97 139.11 338.97 135.2V114.45H327.86V135.71C327.86 137.46 327.57 138.97 326.98 140.24C326.39 141.51 325.54 142.47 324.41 143.12C323.29 143.77 321.93 144.09 320.33 144.09C318.73 144.09 317.35 143.77 316.17 143.12C314.99 142.47 314.1 141.52 313.49 140.27C312.88 139.02 312.58 137.5 312.58 135.71V114.45H301.64V135.2C301.64 139.15 302.37 142.55 303.84 145.4C305.3 148.25 307.43 150.45 310.22 152.01C313.01 153.57 316.37 154.35 320.28 154.35C324.19 154.35 327.43 153.57 330.23 152.01H330.22Z" fill="black"/>
<path d="M407.02 153.78V130.7C407.02 127.28 406.42 124.32 405.23 121.81C404.03 119.3 402.35 117.35 400.19 115.97C398.02 114.58 395.5 113.89 392.61 113.89C390.41 113.89 388.43 114.2 386.68 114.83C384.93 115.46 383.28 116.51 381.72 117.99C381.04 118.64 380.33 119.41 379.6 120.27C378.52 118.49 377.16 117.05 375.47 115.96C373.32 114.57 370.77 113.88 367.8 113.88C365.82 113.88 363.99 114.21 362.3 114.88C360.61 115.55 358.98 116.64 357.43 118.16C357.39 118.2 357.35 118.24 357.32 118.28V114.46H346.38V153.79H357.38V129.57C358.48 127.67 359.64 126.29 360.86 125.44C362.08 124.58 363.41 124.16 364.85 124.16C366.86 124.16 368.43 124.78 369.55 126.01C370.67 127.25 371.23 128.98 371.23 131.22V153.79H382.17V130.71C382.17 130.29 382.13 129.9 382.12 129.49C383.15 127.69 384.27 126.35 385.48 125.49C386.73 124.6 388.12 124.15 389.64 124.15C391.62 124.15 393.16 124.78 394.29 126.03C395.41 127.28 395.97 129.01 395.97 131.22V153.79H407.03L407.02 153.78Z" fill="black"/>
<path d="M441.17 142.58C440.18 143.25 439.09 143.76 437.89 144.12C436.69 144.48 435.43 144.66 434.1 144.66C431.74 144.66 429.81 144.24 428.29 143.41C426.77 142.58 425.62 141.3 424.84 139.59C424.43 138.69 424.13 137.68 423.94 136.57H450.12C450.27 136.19 450.38 135.75 450.46 135.26C450.54 134.77 450.6 134.26 450.66 133.75C450.72 133.24 450.75 132.72 450.77 132.21C450.79 131.7 450.8 131.19 450.8 130.7C450.8 127.36 450.02 124.44 448.46 121.95C446.9 119.46 444.76 117.5 442.05 116.05C439.33 114.61 436.15 113.88 432.5 113.88C428.59 113.88 425.16 114.73 422.21 116.42C419.26 118.11 416.96 120.48 415.28 123.52C413.61 126.56 412.77 130.09 412.77 134.12C412.77 137.08 413.27 139.81 414.28 142.3C415.29 144.79 416.75 146.94 418.67 148.74C420.59 150.55 422.85 151.93 425.45 152.9C428.05 153.87 430.93 154.35 434.09 154.35C437.7 154.35 441.02 153.68 444.04 152.33C447.06 150.98 449.52 149.01 451.42 146.43L443.61 140.27C442.96 141.14 442.15 141.91 441.16 142.58H441.17ZM427.63 123.83C428.9 123.01 430.43 122.6 432.22 122.6C433.78 122.6 435.16 122.89 436.35 123.45C437.55 124.02 438.48 124.79 439.14 125.76C439.74 126.63 440.05 127.65 440.11 128.81H424.2C424.34 128.31 424.5 127.83 424.69 127.39C425.37 125.83 426.35 124.64 427.62 123.83H427.63Z" fill="black"/>
<path d="M478.62 113.94C476.72 113.94 474.94 114.3 473.29 115.02C471.64 115.74 470.04 116.89 468.5 118.47C468.5 118.47 468.48 118.49 468.47 118.5V114.45H457.53V153.78H468.53V129.33C469.36 127.89 470.62 126.75 472.29 125.91C473.96 125.08 475.69 124.66 477.48 124.66C478.31 124.66 479.08 124.7 479.79 124.77C480.5 124.84 481.26 124.98 482.1 125.17V114.45C481.64 114.3 481.11 114.17 480.5 114.08C479.89 113.99 479.26 113.94 478.62 113.94Z" fill="black"/>
<path d="M495.94 100.94C495.03 100.37 494.02 100.08 492.92 100.08C491.82 100.08 490.84 100.37 489.87 100.94C488.9 101.51 488.14 102.24 487.59 103.13C487.04 104.02 486.76 105.02 486.76 106.12C486.76 107.22 487.04 108.25 487.59 109.2C488.14 110.15 488.9 110.91 489.87 111.48C490.84 112.05 491.86 112.33 492.92 112.33C493.98 112.33 495.03 112.05 495.94 111.48C496.85 110.91 497.58 110.15 498.13 109.2C498.68 108.25 498.96 107.24 498.96 106.18C498.96 105.12 498.68 104.07 498.13 103.16C497.58 102.25 496.85 101.51 495.94 100.94Z" fill="black"/>
<path d="M498.34 114.45H487.34V153.78H498.34V114.45Z" fill="black"/>
<path d="M535.05 118.22C533.62 116.78 532.03 115.7 530.26 115.02C528.28 114.26 526.06 113.88 523.59 113.88C520.78 113.88 518.2 114.38 515.87 115.36C513.53 116.35 511.51 117.75 509.8 119.58C508.09 121.41 506.76 123.55 505.81 126.02C504.86 128.49 504.39 131.19 504.39 134.11C504.39 137.03 504.86 139.74 505.81 142.23C506.76 144.72 508.09 146.87 509.8 148.67C511.51 150.48 513.54 151.85 515.9 152.8C518.26 153.75 520.82 154.22 523.6 154.22C526.07 154.22 528.29 153.85 530.27 153.11C532.04 152.45 533.63 151.38 535.06 149.94V162.32H546.06V114.44H535.06V118.21L535.05 118.22ZM531.03 142.72C529.38 143.63 527.49 144.09 525.36 144.09C523.92 144.09 522.6 143.85 521.43 143.38C520.25 142.91 519.24 142.23 518.41 141.36C517.58 140.49 516.92 139.43 516.44 138.2C515.96 136.97 515.73 135.61 515.73 134.12C515.73 132.56 515.97 131.18 516.44 129.99C516.92 128.79 517.57 127.76 518.41 126.88C519.25 126.01 520.25 125.33 521.43 124.86C522.61 124.39 523.92 124.15 525.36 124.15C527.49 124.15 529.38 124.61 531.03 125.52C532.58 126.38 533.91 127.67 535.05 129.36V138.89C533.92 140.58 532.58 141.87 531.03 142.73V142.72Z" fill="black"/>
<path d="M579.68 135.71C579.68 137.46 579.39 138.97 578.8 140.24C578.21 141.51 577.36 142.47 576.23 143.12C575.11 143.77 573.75 144.09 572.15 144.09C570.55 144.09 569.17 143.77 567.99 143.12C566.81 142.47 565.92 141.52 565.31 140.27C564.7 139.02 564.4 137.5 564.4 135.71V114.45H553.46V135.2C553.46 139.15 554.19 142.55 555.66 145.4C557.12 148.25 559.25 150.45 562.04 152.01C564.83 153.57 568.19 154.35 572.1 154.35C576.01 154.35 579.25 153.57 582.05 152.01C584.84 150.45 587 148.24 588.52 145.37C590.04 142.5 590.8 139.11 590.8 135.2V114.45H579.69V135.71H579.68Z" fill="black"/>
<path d="M627.16 140.27C626.51 141.14 625.7 141.91 624.71 142.58C623.72 143.25 622.63 143.76 621.43 144.12C620.23 144.48 618.97 144.66 617.64 144.66C615.28 144.66 613.35 144.24 611.83 143.41C610.31 142.58 609.16 141.3 608.38 139.59C607.97 138.69 607.67 137.68 607.48 136.57H633.66C633.81 136.19 633.92 135.75 634 135.26C634.08 134.77 634.14 134.26 634.2 133.75C634.26 133.24 634.29 132.72 634.31 132.21C634.33 131.7 634.34 131.19 634.34 130.7C634.34 127.36 633.56 124.44 632 121.95C630.44 119.46 628.3 117.5 625.59 116.05C622.87 114.61 619.69 113.88 616.04 113.88C612.13 113.88 608.7 114.73 605.75 116.42C602.8 118.11 600.5 120.48 598.82 123.52C597.15 126.56 596.31 130.09 596.31 134.12C596.31 137.08 596.81 139.81 597.82 142.3C598.83 144.79 600.29 146.94 602.21 148.74C604.13 150.55 606.39 151.93 608.99 152.9C611.59 153.87 614.47 154.35 617.63 154.35C621.24 154.35 624.56 153.68 627.58 152.33C630.6 150.98 633.06 149.01 634.96 146.43L627.15 140.27H627.16ZM611.17 123.83C612.44 123.01 613.97 122.6 615.76 122.6C617.32 122.6 618.7 122.89 619.89 123.45C621.09 124.02 622.02 124.79 622.68 125.76C623.28 126.63 623.59 127.65 623.65 128.81H607.74C607.88 128.31 608.04 127.83 608.23 127.39C608.91 125.83 609.89 124.64 611.16 123.83H611.17Z" fill="black"/>
<path d="M260.68 191.58C259.56 190.88 258.33 190.53 257 190.53C255.67 190.53 254.42 190.88 253.27 191.58C252.11 192.28 251.2 193.19 250.53 194.29C249.86 195.39 249.53 196.61 249.53 197.94C249.53 199.27 249.87 200.55 250.56 201.67C251.24 202.79 252.15 203.68 253.27 204.35C254.39 205.02 255.64 205.35 257 205.35C258.36 205.35 259.54 205.02 260.65 204.35C261.75 203.69 262.65 202.79 263.33 201.67C264.01 200.55 264.36 199.3 264.36 197.94C264.36 196.58 264.03 195.39 263.36 194.29C262.69 193.19 261.8 192.29 260.68 191.58Z" fill="black"/>
<path d="M294.68 168.73C293.25 167.37 291.64 166.37 289.84 165.73C288.02 165.08 285.91 164.76 283.51 164.76C280.36 164.76 277.53 165.47 275.02 166.9C272.51 168.33 270.55 170.3 269.12 172.83C267.7 175.36 266.98 178.27 266.98 181.58C266.98 184.05 267.39 186.3 268.21 188.33C269.03 190.36 270.18 192.12 271.66 193.6C273.14 195.08 274.89 196.23 276.9 197.05C278.91 197.87 281.12 198.28 283.51 198.28C285.9 198.28 288.01 197.97 289.84 197.34C291.64 196.72 293.25 195.72 294.68 194.34V195.71C294.68 197.76 294.25 199.39 293.4 200.58C292.55 201.78 291.37 202.63 289.87 203.15C288.37 203.66 286.65 203.92 284.71 203.92C283.38 203.92 282.13 203.77 280.95 203.46C279.77 203.16 278.73 202.68 277.82 202.03C276.91 201.38 276.15 200.61 275.54 199.69L267.05 206.02C269.03 208.6 271.53 210.56 274.57 211.89C277.61 213.22 281.05 213.89 284.89 213.89C289.18 213.89 292.88 213.05 295.98 211.38C299.08 209.71 301.46 207.39 303.13 204.43C304.8 201.47 305.64 198.07 305.64 194.23V165.44H294.7V168.72L294.68 168.73ZM291.17 187.48C289.75 188.07 288.16 188.36 286.41 188.36C284.85 188.36 283.46 188.08 282.25 187.53C281.03 186.98 280.09 186.19 279.43 185.16C278.76 184.13 278.43 182.94 278.43 181.57C278.43 180.13 278.76 178.9 279.43 177.89C280.09 176.88 281.03 176.1 282.25 175.55C283.47 175 284.85 174.72 286.41 174.72C288.16 174.72 289.74 175.01 291.17 175.6C292.59 176.19 293.76 177.13 294.67 178.42V184.58C293.76 185.91 292.59 186.87 291.17 187.46V187.48Z" fill="black"/>
<path d="M347.26 170.64C345.38 168.82 343.17 167.4 340.62 166.39C338.07 165.38 335.3 164.88 332.3 164.88C329.3 164.88 326.46 165.38 323.89 166.39C321.33 167.4 319.1 168.81 317.22 170.64C315.34 172.46 313.87 174.61 312.8 177.08C311.74 179.55 311.2 182.23 311.2 185.12C311.2 188.01 311.73 190.69 312.8 193.16C313.86 195.63 315.34 197.78 317.22 199.6C319.1 201.42 321.32 202.84 323.89 203.85C326.46 204.86 329.26 205.36 332.3 205.36C335.34 205.36 338.08 204.86 340.62 203.85C343.16 202.84 345.38 201.43 347.26 199.6C349.14 197.78 350.6 195.63 351.65 193.16C352.69 190.69 353.22 188.01 353.22 185.12C353.22 182.23 352.7 179.55 351.65 177.08C350.6 174.61 349.14 172.46 347.26 170.64ZM341.25 189.08C340.75 190.28 340.07 191.33 339.2 192.24C338.33 193.15 337.3 193.86 336.12 194.35C334.94 194.84 333.67 195.09 332.3 195.09C330.93 195.09 329.64 194.84 328.42 194.35C327.2 193.86 326.17 193.16 325.31 192.27C324.45 191.38 323.78 190.32 323.29 189.11C322.79 187.89 322.55 186.56 322.55 185.12C322.55 183.68 322.8 182.35 323.29 181.13C323.78 179.91 324.46 178.86 325.31 177.97C326.16 177.08 327.2 176.38 328.42 175.89C329.64 175.4 330.95 175.15 332.35 175.15C333.75 175.15 335.05 175.4 336.23 175.89C337.41 176.39 338.42 177.09 339.28 178C340.13 178.91 340.8 179.96 341.28 181.13C341.75 182.31 341.99 183.64 341.99 185.12C341.99 186.6 341.74 187.88 341.25 189.08Z" fill="black"/>
<path d="M384.57 186.71C384.57 188.46 384.28 189.97 383.69 191.24C383.1 192.51 382.25 193.47 381.12 194.12C380 194.77 378.64 195.09 377.04 195.09C375.44 195.09 374.06 194.77 372.88 194.12C371.7 193.47 370.81 192.52 370.2 191.27C369.59 190.02 369.29 188.5 369.29 186.71V165.45H358.35V186.2C358.35 190.15 359.08 193.55 360.55 196.4C362.01 199.25 364.14 201.45 366.93 203.01C369.72 204.57 373.08 205.35 376.99 205.35C380.9 205.35 384.14 204.57 386.94 203.01C389.73 201.45 391.89 199.24 393.41 196.37C394.93 193.5 395.69 190.11 395.69 186.2V165.45H384.58V186.71H384.57Z" fill="black"/>
<path d="M420.37 192.11L410.9 165.45H399.16L413.18 204.78H427.6L441.45 165.45H429.82L420.37 192.11Z" fill="black"/>
<path d="M146.38 156.33L76.69 116.09C77.69 114.31 79.18 112.81 81.01 111.75L141.5 76.81C143.02 75.94 144.7 75.5 146.39 75.5V156.33H146.38Z" fill="url(#paint0_linear_22_57)"/>
<path d="M146.38 156.33L76.7 196.59C75.66 194.83 75.1 192.79 75.1 190.67V121.98C75.1 119.86 75.67 117.85 76.69 116.09L146.38 156.33Z" fill="url(#paint1_linear_22_57)"/>
<path d="M146.38 237.14C144.51 237.14 142.85 236.54 141.49 235.83L129.05 228.65L81.01 200.9C79.18 199.85 77.73 198.36 76.71 196.6L146.39 156.34V237.15L146.38 237.14Z" fill="url(#paint2_linear_22_57)"/>
<path d="M146.38 156.33L216.07 116.09C215.07 114.31 213.58 112.81 211.75 111.75L151.26 76.81C149.74 75.94 148.06 75.5 146.37 75.5V156.33H146.38Z" fill="url(#paint3_linear_22_57)"/>
<path d="M146.38 156.33L216.06 196.59C217.1 194.83 217.66 192.79 217.66 190.67V121.98C217.66 119.86 217.09 117.85 216.07 116.09L146.38 156.33Z" fill="url(#paint4_linear_22_57)"/>
<path d="M146.38 237.14C148.25 237.14 149.91 236.54 151.27 235.83L163.71 228.65L211.75 200.9C213.58 199.85 215.03 198.36 216.05 196.6L146.37 156.34V237.15L146.38 237.14Z" fill="url(#paint5_linear_22_57)"/>
<path d="M146.39 156.31V194.11C145.5 194.11 144.61 193.88 143.82 193.43L114.94 176.75C113.71 176.05 112.97 174.74 112.97 173.35V139.29C112.97 138.59 113.16 137.91 113.49 137.33L146.4 156.31H146.39Z" fill="url(#paint6_linear_22_57)"/>
<path d="M179.8 139.29V173.35C179.8 174.74 179.06 176.04 177.86 176.73C177.86 176.75 177.84 176.75 177.84 176.75L148.96 193.43C148.17 193.88 147.26 194.11 146.39 194.11V156.31L179.29 137.33C179.63 137.91 179.81 138.59 179.81 139.29H179.8Z" fill="url(#paint7_linear_22_57)"/>
<path d="M179.28 137.33L146.38 156.31L113.47 137.33C113.83 136.73 114.31 136.23 114.93 135.89L144.35 118.9C145.61 118.17 147.17 118.17 148.41 118.9L177.84 135.89C177.84 135.89 177.86 135.89 177.86 135.91C178.46 136.25 178.94 136.75 179.28 137.33Z" fill="white"/>
<path d="M75.1 263.21H79.19V284.55H89.09V288.32H75.1V263.21Z" fill="black"/>
<path d="M88.73 273.15L91.85 263.21H96.05L92.14 273.15H88.73Z" fill="black"/>
<path d="M97.77 283.62C97.77 280.89 99.89 278.92 103.73 278.27L109.58 277.3V276.37C109.58 274.15 107.93 272.78 105.6 272.78C103.63 272.78 102.08 273.68 101.04 275.15L98.28 273.03C99.89 270.88 102.48 269.51 105.71 269.51C110.59 269.51 113.28 272.38 113.28 276.36V288.31H109.59V286.27C108.3 287.85 106.04 288.85 103.81 288.85C100.22 288.85 97.78 286.81 97.78 283.61L97.77 283.62ZM104.48 285.85C106.74 285.85 108.5 284.77 109.57 283.05V279.93L104.69 280.76C102.43 281.15 101.5 282.12 101.5 283.49C101.5 284.86 102.61 285.86 104.48 285.86V285.85Z" fill="black"/>
<path d="M119.05 261.42H122.75V288.33H119.05V261.42Z" fill="black"/>
<path d="M128.77 261.42H132.47V288.33H128.77V261.42Z" fill="black"/>
<path d="M137.85 263.71C137.85 262.35 139 261.2 140.36 261.2C141.72 261.2 142.87 262.35 142.87 263.71C142.87 265.07 141.72 266.22 140.36 266.22C139 266.22 137.85 265.07 137.85 263.71ZM138.5 270.24H142.2V288.32H138.5V270.24Z" fill="black"/>
<path d="M147.18 283.62C147.18 280.89 149.3 278.92 153.14 278.27L158.99 277.3V276.37C158.99 274.15 157.34 272.78 155.01 272.78C153.04 272.78 151.49 273.68 150.45 275.15L147.69 273.03C149.3 270.88 151.89 269.51 155.12 269.51C160 269.51 162.69 272.38 162.69 276.36V288.31H159V286.27C157.71 287.85 155.45 288.85 153.22 288.85C149.63 288.85 147.19 286.81 147.19 283.61L147.18 283.62ZM153.89 285.85C156.15 285.85 157.91 284.77 158.98 283.05V279.93L154.1 280.76C151.84 281.15 150.91 282.12 150.91 283.49C150.91 284.86 152.02 285.86 153.89 285.86V285.85Z" fill="black"/>
<path d="M168.46 270.24H172.16V272C173.52 270.56 175.32 269.52 177.9 269.52C181.88 269.52 184.93 272.21 184.93 277.45V288.32H181.2V277.59C181.2 274.72 179.62 273 177.04 273C174.46 273 173.09 274.54 172.16 276.12V288.32H168.46V270.24Z" fill="black"/>
<path d="M203.83 283.16L206.74 285.38C205.09 287.6 202.44 289.04 199.1 289.04C193.04 289.04 189.23 284.56 189.23 279.28C189.23 274 193.03 269.52 199.1 269.52C202.4 269.52 205.09 270.96 206.74 273.18L203.83 275.4C202.83 274 201.18 273 199.1 273C195.62 273 193.11 275.73 193.11 279.28C193.11 282.83 195.62 285.56 199.14 285.56C201.18 285.56 202.83 284.56 203.84 283.16H203.83Z" fill="black"/>
<path d="M218.4 289.04C212.16 289.04 208.46 284.56 208.46 279.28C208.46 274 211.9 269.52 217.64 269.52C222.63 269.52 225.85 272.93 225.85 277.52C225.85 278.35 225.74 279.17 225.6 279.71H212.25C212.5 283.66 214.9 285.7 218.38 285.7C220.57 285.7 222.4 284.73 223.51 283.23L226.2 285.38C224.51 287.64 221.75 289.04 218.38 289.04H218.4ZM212.45 276.95H222.17C222.1 274.69 220.48 272.61 217.58 272.61C214.89 272.61 213.02 274.15 212.45 276.95Z" fill="black"/>
<path d="M248.22 269.53C250.8 269.53 252.74 270.46 254.25 272.08V261.43H258.02V288.34H254.25V286.51C252.74 288.12 250.81 289.06 248.22 289.06C242.52 289.06 238.96 284.58 238.96 279.3C238.96 274.02 242.51 269.54 248.22 269.54V269.53ZM248.68 285.56C251.01 285.56 253.02 284.45 254.24 282.55V276.02C252.91 274.05 250.94 273.01 248.68 273.01C245.2 273.01 242.87 275.74 242.87 279.29C242.87 282.84 245.2 285.57 248.68 285.57V285.56Z" fill="black"/>
<path d="M276.24 270.24H279.97V280.39C279.97 285.81 276.85 289.04 271.79 289.04C266.73 289.04 263.57 285.81 263.57 280.39V270.24H267.3V280.57C267.3 283.69 268.95 285.56 271.78 285.56C274.61 285.56 276.23 283.69 276.23 280.57V270.24H276.24Z" fill="black"/>
<path d="M295.29 270.24H298.99V272C300.35 270.56 302.15 269.52 304.73 269.52C308.71 269.52 311.76 272.21 311.76 277.45V288.32H308.03V277.59C308.03 274.72 306.45 273 303.87 273C301.29 273 299.92 274.54 298.99 276.12V288.32H295.29V270.24Z" fill="black"/>
<path d="M329.77 270.24H333.5V280.39C333.5 285.81 330.38 289.04 325.32 289.04C320.26 289.04 317.1 285.81 317.1 280.39V270.24H320.83V280.57C320.83 283.69 322.48 285.56 325.31 285.56C328.14 285.56 329.76 283.69 329.76 280.57V270.24H329.77Z" fill="black"/>
<path d="M339.14 270.24H342.84V271.93C344.13 270.53 345.82 269.53 348.22 269.53C350.62 269.53 352.78 270.64 353.92 272.79C355.32 271 357.11 269.53 360.23 269.53C364 269.53 366.9 272.11 366.9 277.1V288.33H363.17V277.25C363.17 274.6 361.7 273.02 359.37 273.02C357.22 273.02 355.82 274.38 354.85 276.11C354.89 276.43 354.89 276.76 354.89 277.11V288.34H351.16V277.26C351.16 274.61 349.73 273.03 347.36 273.03C344.99 273.03 343.7 274.61 342.84 276.15V288.35H339.14V270.27V270.24Z" fill="black"/>
<path d="M381.15 289.04C374.91 289.04 371.21 284.56 371.21 279.28C371.21 274 374.65 269.52 380.39 269.52C385.38 269.52 388.6 272.93 388.6 277.52C388.6 278.35 388.49 279.17 388.35 279.71H375C375.25 283.66 377.65 285.7 381.13 285.7C383.32 285.7 385.15 284.73 386.26 283.23L388.95 285.38C387.26 287.64 384.5 289.04 381.13 289.04H381.15ZM375.2 276.95H384.92C384.85 274.69 383.23 272.61 380.33 272.61C377.64 272.61 375.77 274.15 375.2 276.95ZM378.82 267.37L382.55 261.41H386.64L382.41 267.37H378.82Z" fill="black"/>
<path d="M393.46 270.24H397.16V272.28C398.42 270.88 399.99 269.88 402.22 269.88C402.79 269.88 403.33 269.99 403.8 270.13V273.75C403.23 273.61 402.65 273.5 401.9 273.5C399.6 273.5 398.1 274.72 397.16 276.26V288.31H393.46V270.23V270.24Z" fill="black"/>
<path d="M407.2 263.71C407.2 262.35 408.35 261.2 409.71 261.2C411.07 261.2 412.22 262.35 412.22 263.71C412.22 265.07 411.07 266.22 409.71 266.22C408.35 266.22 407.2 265.07 407.2 263.71ZM407.84 270.24H411.54V288.32H407.84V270.24Z" fill="black"/>
<path d="M425.35 269.53C427.97 269.53 429.91 270.46 431.41 272.11V270.24H435.18V297.15H431.41V286.46C429.9 288.11 427.97 289.04 425.35 289.04C419.68 289.04 416.13 284.56 416.13 279.28C416.13 274 419.68 269.52 425.35 269.52V269.53ZM425.82 285.56C428.19 285.56 430.2 284.45 431.42 282.55V276.02C430.09 274.05 428.12 273.01 425.82 273.01C422.34 273.01 420.01 275.74 420.01 279.29C420.01 282.84 422.34 285.57 425.82 285.57V285.56Z" fill="black"/>
<path d="M453.45 270.24H457.18V280.39C457.18 285.81 454.06 289.04 449 289.04C443.94 289.04 440.78 285.81 440.78 280.39V270.24H444.51V280.57C444.51 283.69 446.16 285.56 448.99 285.56C451.82 285.56 453.44 283.69 453.44 280.57V270.24H453.45Z" fill="black"/>
<path d="M471.31 289.04C465.07 289.04 461.37 284.56 461.37 279.28C461.37 274 464.81 269.52 470.55 269.52C475.54 269.52 478.76 272.93 478.76 277.52C478.76 278.35 478.65 279.17 478.51 279.71H465.16C465.41 283.66 467.81 285.7 471.29 285.7C473.48 285.7 475.31 284.73 476.42 283.23L479.11 285.38C477.42 287.64 474.66 289.04 471.29 289.04H471.31ZM465.36 276.95H475.08C475.01 274.69 473.39 272.61 470.49 272.61C467.8 272.61 465.93 274.15 465.36 276.95Z" fill="black"/>
<path d="M501.13 269.53C503.71 269.53 505.65 270.46 507.16 272.08V261.43H510.93V288.34H507.16V286.51C505.65 288.12 503.72 289.06 501.13 289.06C495.43 289.06 491.87 284.58 491.87 279.3C491.87 274.02 495.42 269.54 501.13 269.54V269.53ZM501.6 285.56C503.93 285.56 505.94 284.45 507.16 282.55V276.02C505.83 274.05 503.86 273.01 501.6 273.01C498.12 273.01 495.79 275.74 495.79 279.29C495.79 282.84 498.12 285.57 501.6 285.57V285.56Z" fill="black"/>
<path d="M525.38 289.04C519.14 289.04 515.44 284.56 515.44 279.28C515.44 274 518.88 269.52 524.62 269.52C529.61 269.52 532.83 272.93 532.83 277.52C532.83 278.35 532.72 279.17 532.58 279.71H519.23C519.48 283.66 521.88 285.7 525.36 285.7C527.55 285.7 529.38 284.73 530.49 283.23L533.18 285.38C531.49 287.64 528.73 289.04 525.36 289.04H525.38ZM519.43 276.95H529.15C529.08 274.69 527.46 272.61 524.56 272.61C521.87 272.61 520 274.15 519.43 276.95Z" fill="black"/>
<path d="M547.38 261.42H551.08V288.33H547.38V261.42Z" fill="black"/>
<path d="M555.49 273.15L558.61 263.21H562.81L558.9 273.15H555.49Z" fill="black"/>
<path d="M567.87 263.21H581.86V266.69H571.96V273.79H580.43V277.27H571.96V284.84H581.86V288.32H567.87V263.21ZM572.96 261.06L577.01 256.22H581.39L576.76 261.06H572.96Z" fill="black"/>
<path d="M588.46 273.58H585.05V270.24H588.46V265.72H592.19V270.24H598.18V273.58H592.19V282.05C592.19 284.49 593.48 285.28 595.49 285.28C596.71 285.28 597.53 285.14 598.18 284.89V288.15C597.32 288.51 596.31 288.69 594.92 288.69C590.69 288.69 588.46 286.47 588.46 282.05V273.58Z" fill="black"/>
<path d="M601.56 283.62C601.56 280.89 603.68 278.92 607.52 278.27L613.37 277.3V276.37C613.37 274.15 611.72 272.78 609.39 272.78C607.42 272.78 605.87 273.68 604.83 275.15L602.07 273.03C603.68 270.88 606.27 269.51 609.5 269.51C614.38 269.51 617.07 272.38 617.07 276.36V288.31H613.38V286.27C612.09 287.85 609.83 288.85 607.6 288.85C604.01 288.85 601.57 286.81 601.57 283.61L601.56 283.62ZM608.27 285.85C610.53 285.85 612.29 284.77 613.36 283.05V279.93L608.48 280.76C606.22 281.15 605.29 282.12 605.29 283.49C605.29 284.86 606.4 285.86 608.27 285.86V285.85Z" fill="black"/>
<path d="M623.91 273.58H620.5V270.24H623.91V265.72H627.64V270.24H633.63V273.58H627.64V282.05C627.64 284.49 628.93 285.28 630.94 285.28C632.16 285.28 632.98 285.14 633.63 284.89V288.15C632.77 288.51 631.76 288.69 630.37 288.69C626.14 288.69 623.91 286.47 623.91 282.05V273.58Z" fill="black"/>
<defs>
<linearGradient id="paint0_linear_22_57" x1="93.71" y1="145.57" x2="163.55" y2="105.25" gradientUnits="userSpaceOnUse">
<stop stop-color="#ACD1FF"/>
<stop offset="0.6" stop-color="#000091"/>
</linearGradient>
<linearGradient id="paint1_linear_22_57" x1="110.74" y1="196.59" x2="110.74" y2="116.09" gradientUnits="userSpaceOnUse">
<stop stop-color="#ACD1FF"/>
<stop offset="0.6" stop-color="#000091"/>
</linearGradient>
<linearGradient id="paint2_linear_22_57" x1="163.55" y1="207.41" x2="93.73" y2="167.1" gradientUnits="userSpaceOnUse">
<stop stop-color="#ACD1FF"/>
<stop offset="0.6" stop-color="#000091"/>
</linearGradient>
<linearGradient id="paint3_linear_22_57" x1="129.21" y1="105.25" x2="199.05" y2="145.57" gradientUnits="userSpaceOnUse">
<stop stop-color="#FD9938"/>
<stop offset="0.6" stop-color="#E1000F"/>
<stop offset="0.7" stop-color="#DB0211"/>
<stop offset="0.84" stop-color="#CA0817"/>
<stop offset="0.99" stop-color="#AF1220"/>
<stop offset="1" stop-color="#AD1422"/>
</linearGradient>
<linearGradient id="paint4_linear_22_57" x1="182.02" y1="116.09" x2="182.02" y2="196.59" gradientUnits="userSpaceOnUse">
<stop stop-color="#FD9938"/>
<stop offset="0.6" stop-color="#E1000F"/>
<stop offset="0.7" stop-color="#DB0211"/>
<stop offset="0.84" stop-color="#CA0817"/>
<stop offset="0.99" stop-color="#AF1220"/>
<stop offset="1" stop-color="#AD1422"/>
</linearGradient>
<linearGradient id="paint5_linear_22_57" x1="199.03" y1="167.1" x2="129.21" y2="207.41" gradientUnits="userSpaceOnUse">
<stop stop-color="#FD9938"/>
<stop offset="0.6" stop-color="#E1000F"/>
<stop offset="0.7" stop-color="#DB0211"/>
<stop offset="0.84" stop-color="#CA0817"/>
<stop offset="0.99" stop-color="#AF1220"/>
<stop offset="1" stop-color="#AD1422"/>
</linearGradient>
<linearGradient id="paint6_linear_22_57" x1="113.49" y1="137.32" x2="146.3" y2="194.16" gradientUnits="userSpaceOnUse">
<stop stop-color="#FD9938"/>
<stop offset="0.6" stop-color="#E1000F"/>
<stop offset="0.7" stop-color="#DB0211"/>
<stop offset="0.84" stop-color="#CA0817"/>
<stop offset="0.99" stop-color="#AF1220"/>
<stop offset="1" stop-color="#AD1422"/>
</linearGradient>
<linearGradient id="paint7_linear_22_57" x1="179.28" y1="137.33" x2="146.46" y2="194.16" gradientUnits="userSpaceOnUse">
<stop stop-color="#ACD1FF"/>
<stop offset="0.03" stop-color="#A2C5F9"/>
<stop offset="0.24" stop-color="#6980D4"/>
<stop offset="0.43" stop-color="#3C49B7"/>
<stop offset="0.59" stop-color="#1B21A2"/>
<stop offset="0.72" stop-color="#070895"/>
<stop offset="0.8" stop-color="#000091"/>
</linearGradient>
</defs>
</svg>
